<svg class="w-32 h-32 text-white" fill="currentColor" viewBox="0 0 24 24">
  <!-- Huella dactilar estilizada -->
  <circle cx="12" cy="12" r="10" fill="none" stroke="currentColor" stroke-width="0.8" opacity="0.3"/>
  <circle cx="12" cy="12" r="8" fill="none" stroke="currentColor" stroke-width="0.8" opacity="0.4"/>
  <circle cx="12" cy="12" r="6" fill="none" stroke="currentColor" stroke-width="0.8" opacity="0.5"/>
  <circle cx="12" cy="12" r="4" fill="none" stroke="currentColor" stroke-width="1" opacity="0.7"/>
  <circle cx="12" cy="12" r="2" fill="none" stroke="currentColor" stroke-width="1" opacity="0.9"/>
  <circle cx="12" cy="12" r="0.8" fill="currentColor" opacity="1"/>
  
  <!-- Líneas características de huella -->
  <path d="M12 4c-4 0-7 3-7 7" fill="none" stroke="currentColor" stroke-width="1.5" opacity="0.8"/>
  <path d="M12 6c-3 0-5 2-5 5" fill="none" stroke="currentColor" stroke-width="1.5" opacity="0.8"/>
  <path d="M12 4c4 0 7 3 7 7" fill="none" stroke="currentColor" stroke-width="1.5" opacity="0.8"/>
  <path d="M12 6c3 0 5 2 5 5" fill="none" stroke="currentColor" stroke-width="1.5" opacity="0.8"/>
  
  <!-- Líneas adicionales para realismo -->
  <path d="M8 12c0-2.2 1.8-4 4-4" fill="none" stroke="currentColor" stroke-width="1" opacity="0.6"/>
  <path d="M16 12c0-2.2-1.8-4-4-4" fill="none" stroke="currentColor" stroke-width="1" opacity="0.6"/>
</svg>